<svg width="39" height="34" viewBox="0 0 39 34" fill="none" xmlns="http://www.w3.org/2000/svg">
<path d="M2.12085 33.625C1.61321 33.625 1.22501 33.401 0.956262 32.9531C0.687512 32.5052 0.687512 32.0573 0.956262 31.6094L18.3354 1.59896C18.6042 1.15104 18.9924 0.927082 19.5 0.927082C20.0077 0.927082 20.3958 1.15104 20.6646 1.59896L38.0438 31.6094C38.3125 32.0573 38.3125 32.5052 38.0438 32.9531C37.775 33.401 37.3868 33.625 36.8792 33.625H2.12085ZM19.6792 13.3792C19.291 13.3792 18.97 13.5061 18.7162 13.7599C18.4623 14.0137 18.3354 14.3347 18.3354 14.7229V22.0688C18.3354 22.4569 18.4623 22.778 18.7162 23.0318C18.97 23.2856 19.291 23.4125 19.6792 23.4125C20.0674 23.4125 20.3884 23.2856 20.6422 23.0318C20.896 22.778 21.0229 22.4569 21.0229 22.0688V14.7229C21.0229 14.3347 20.896 14.0137 20.6422 13.7599C20.3884 13.5061 20.0674 13.3792 19.6792 13.3792ZM19.6792 28.3844C20.0674 28.3844 20.3884 28.2575 20.6422 28.0036C20.896 27.7498 21.0229 27.4288 21.0229 27.0406C21.0229 26.6524 20.896 26.3314 20.6422 26.0776C20.3884 25.8238 20.0674 25.6969 19.6792 25.6969C19.291 25.6969 18.97 25.8238 18.7162 26.0776C18.4623 26.3314 18.3354 26.6524 18.3354 27.0406C18.3354 27.4288 18.4623 27.7498 18.7162 28.0036C18.97 28.2575 19.291 28.3844 19.6792 28.3844ZM4.45001 30.9375H34.55L19.5 4.95833L4.45001 30.9375Z" fill="#EB1616"/>
</svg>
